<svg xmlns="http://www.w3.org/2000/svg" xmlns:xlink="http://www.w3.org/1999/xlink" contentStyleType="text/css" data-diagram-type="DESCRIPTION" height="1340px" preserveAspectRatio="none" style="width:1056px;height:1340px;background:#FFFFFF;" version="1.1" viewBox="0 0 1056 1340" width="1056px" zoomAndPan="magnify"><defs/><g><!--cluster detector--><g class="cluster" data-entity="detector" data-source-line="14" data-uid="ent0003" id="cluster_detector"><polygon fill="#FFFFCC" points="56,156.3,66,146.3,903.83,146.3,903.83,778.67,893.83,788.67,56,788.67,56,156.3" style="stroke:#000000;stroke-width:1;"/><line style="stroke:#000000;stroke-width:1;" x1="893.83" x2="903.83" y1="156.3" y2="146.3"/><line style="stroke:#000000;stroke-width:1;" x1="56" x2="893.83" y1="156.3" y2="156.3"/><line style="stroke:#000000;stroke-width:1;" x1="893.83" x2="893.83" y1="156.3" y2="788.67"/><text fill="#000000" font-family="Verdana" font-size="14" font-weight="bold" lengthAdjust="spacing" textLength="300.5625" x="325.6338" y="172.2951">Semiconductor Radioactivity Detector</text></g><!--cluster AuxiliaryBoard--><g class="cluster" data-entity="AuxiliaryBoard" data-source-line="49" data-uid="ent0026" id="cluster_AuxiliaryBoard"><polygon fill="#ADD8E6" points="21,1011.97,31,1001.97,615,1001.97,615,1190.56,605,1200.56,21,1200.56,21,1011.97" style="stroke:#000000;stroke-width:1;"/><line style="stroke:#000000;stroke-width:1;" x1="605" x2="615" y1="1011.97" y2="1001.97"/><line style="stroke:#000000;stroke-width:1;" x1="21" x2="605" y1="1011.97" y2="1011.97"/><line style="stroke:#000000;stroke-width:1;" x1="605" x2="605" y1="1011.97" y2="1200.56"/><text fill="#000000" font-family="Verdana" font-size="14" font-weight="bold" lengthAdjust="spacing" textLength="121.2422" x="253.3789" y="1027.9651">Auxiliary Board</text></g><g class="entity" data-entity="power_supply_in_12v" data-source-line="15" data-uid="ent0004" id="entity_power_supply_in_12v"><text fill="#000000" font-family="Verdana" font-size="14" lengthAdjust="spacing" textLength="155.2031" x="808.2284" y="124.9982">Power Supply In (12V)</text><rect fill="#FFFFFF" height="12" style="stroke:#000000;stroke-width:1.5;" width="12" x="879.83" y="140.3"/></g><g class="entity" data-entity="sensor_window" data-source-line="16" data-uid="ent0005" id="entity_sensor_window"><text fill="#000000" font-family="Verdana" font-size="14" lengthAdjust="spacing" textLength="107.9463" x="662.8569" y="124.9982">Sensor Window</text><rect fill="#FFFFFF" height="12" style="stroke:#000000;stroke-width:1.5;" width="12" x="710.83" y="140.3"/></g><g class="entity" data-entity="analog_output" data-source-line="18" data-uid="ent0006" id="entity_analog_output"><text fill="#000000" font-family="Verdana" font-size="14" lengthAdjust="spacing" textLength="78.2031" x="189.5684" y="807.6651">Analog Out</text><rect fill="#FFFFFF" height="12" style="stroke:#000000;stroke-width:1.5;" width="12" x="222.67" y="782.67"/></g><g class="entity" data-entity="digital_output_12v" data-source-line="19" data-uid="ent0007" id="entity_digital_output_12v"><text fill="#000000" font-family="Verdana" font-size="14" lengthAdjust="spacing" textLength="75.2363" x="384.8818" y="807.6651">Digital Out</text><text fill="#000000" font-family="Verdana" font-size="14" lengthAdjust="spacing" textLength="85.7705" x="379.6147" y="823.962">(12V Signal)</text><rect fill="#FFFFFF" height="12" style="stroke:#000000;stroke-width:1.5;" width="12" x="416.5" y="782.67"/></g><!--entity sensor--><g class="entity" data-entity="sensor" data-source-line="22" data-uid="ent0008" id="entity_sensor"><rect fill="#EEEEEE" height="55.5938" rx="2.5" ry="2.5" style="stroke:#000000;stroke-width:1;" width="187.8691" x="362.07" y="225.3"/><polygon fill="#EEEEEE" points="532.9391,230.3,532.9391,244.3,544.9391,244.3,544.9391,236.3,538.9391,230.3,532.9391,230.3" style="stroke:#000000;stroke-width:1;"/><line style="stroke:#000000;stroke-width:1;" x1="538.9391" x2="538.9391" y1="230.3" y2="236.3"/><line style="stroke:#000000;stroke-width:1;" x1="544.9391" x2="538.9391" y1="236.3" y2="236.3"/><text fill="#000000" font-family="Verdana" font-size="14" lengthAdjust="spacing" textLength="157.8691" x="372.07" y="251.2951">Semiconductor Sensor</text><text fill="#000000" font-family="Verdana" font-size="14" lengthAdjust="spacing" textLength="86.7207" x="372.07" y="267.592">(3 x BPW34)</text></g><!--entity polarization_voltage--><g class="entity" data-entity="polarization_voltage" data-source-line="23" data-uid="ent0009" id="entity_polarization_voltage"><rect fill="#EEEEEE" height="55.5938" rx="2.5" ry="2.5" style="stroke:#000000;stroke-width:1;" width="169.918" x="80.04" y="225.3"/><polygon fill="#EEEEEE" points="232.958,230.3,232.958,244.3,244.958,244.3,244.958,236.3,238.958,230.3,232.958,230.3" style="stroke:#000000;stroke-width:1;"/><line style="stroke:#000000;stroke-width:1;" x1="238.958" x2="238.958" y1="230.3" y2="236.3"/><line style="stroke:#000000;stroke-width:1;" x1="244.958" x2="238.958" y1="236.3" y2="236.3"/><text fill="#000000" font-family="Verdana" font-size="14" lengthAdjust="spacing" textLength="139.918" x="90.04" y="251.2951">Polarization Voltage</text><text fill="#000000" font-family="Verdana" font-size="14" lengthAdjust="spacing" textLength="132.1865" x="90.04" y="267.592">(4 x 12V Batteries)</text></g><!--entity transimpedance_amplifier--><g class="entity" data-entity="transimpedance_amplifier" data-source-line="24" data-uid="ent0010" id="entity_transimpedance_amplifier"><rect fill="#EEEEEE" height="55.5938" rx="2.5" ry="2.5" style="stroke:#000000;stroke-width:1;" width="214.249" x="281.88" y="372.89"/><polygon fill="#EEEEEE" points="479.129,377.89,479.129,391.89,491.129,391.89,491.129,383.89,485.129,377.89,479.129,377.89" style="stroke:#000000;stroke-width:1;"/><line style="stroke:#000000;stroke-width:1;" x1="485.129" x2="485.129" y1="377.89" y2="383.89"/><line style="stroke:#000000;stroke-width:1;" x1="491.129" x2="485.129" y1="383.89" y2="383.89"/><text fill="#000000" font-family="Verdana" font-size="14" lengthAdjust="spacing" textLength="184.249" x="291.88" y="398.8851">Transimpedance Amplifier</text><text fill="#000000" font-family="Verdana" font-size="14" lengthAdjust="spacing" textLength="76.9316" x="291.88" y="415.182">(OPA657U)</text></g><!--entity inverting_amplifier--><g class="entity" data-entity="inverting_amplifier" data-source-line="25" data-uid="ent0011" id="entity_inverting_amplifier"><rect fill="#EEEEEE" height="55.5938" rx="2.5" ry="2.5" style="stroke:#000000;stroke-width:1;" width="160.3135" x="308.84" y="505.49"/><polygon fill="#EEEEEE" points="452.1535,510.49,452.1535,524.49,464.1535,524.49,464.1535,516.49,458.1535,510.49,452.1535,510.49" style="stroke:#000000;stroke-width:1;"/><line style="stroke:#000000;stroke-width:1;" x1="458.1535" x2="458.1535" y1="510.49" y2="516.49"/><line style="stroke:#000000;stroke-width:1;" x1="464.1535" x2="458.1535" y1="516.49" y2="516.49"/><text fill="#000000" font-family="Verdana" font-size="14" lengthAdjust="spacing" textLength="130.3135" x="318.84" y="531.4851">Inverting Amplifier</text><text fill="#000000" font-family="Verdana" font-size="14" lengthAdjust="spacing" textLength="76.9316" x="318.84" y="547.782">(OPA656U)</text></g><!--entity adc--><g class="entity" data-entity="adc" data-source-line="26" data-uid="ent0012" id="entity_adc"><rect fill="#EEEEEE" height="55.5938" rx="2.5" ry="2.5" style="stroke:#000000;stroke-width:1;" width="206.8389" x="324.58" y="638.08"/><polygon fill="#EEEEEE" points="514.4189,643.08,514.4189,657.08,526.4189,657.08,526.4189,649.08,520.4189,643.08,514.4189,643.08" style="stroke:#000000;stroke-width:1;"/><line style="stroke:#000000;stroke-width:1;" x1="520.4189" x2="520.4189" y1="643.08" y2="649.08"/><line style="stroke:#000000;stroke-width:1;" x1="526.4189" x2="520.4189" y1="649.08" y2="649.08"/><text fill="#000000" font-family="Verdana" font-size="14" lengthAdjust="spacing" textLength="30.1328" x="334.58" y="664.0751">ADC</text><text fill="#000000" font-family="Verdana" font-size="14" lengthAdjust="spacing" textLength="176.8389" x="334.58" y="680.372">(LM358 as a comparator)</text></g><g class="entity" data-entity="power_supply_15v_in" data-source-line="50" data-uid="ent0027" id="entity_power_supply_15v_in"><text fill="#000000" font-family="Verdana" font-size="14" lengthAdjust="spacing" textLength="112.4375" x="455.7813" y="964.3714">Power Supply In</text><text fill="#000000" font-family="Verdana" font-size="14" lengthAdjust="spacing" textLength="38.3154" x="492.8423" y="980.6682">(15V)</text><rect fill="#FFFFFF" height="12" style="stroke:#000000;stroke-width:1.5;" width="12" x="506" y="995.97"/></g><g class="entity" data-entity="digital_input_12v_port" data-source-line="51" data-uid="ent0028" id="entity_digital_input_12v_port"><text fill="#000000" font-family="Verdana" font-size="14" lengthAdjust="spacing" textLength="62.8564" x="331.0718" y="964.3714">Digital In</text><text fill="#000000" font-family="Verdana" font-size="14" lengthAdjust="spacing" textLength="85.7705" x="319.6147" y="980.6682">(12V Signal)</text><rect fill="#FFFFFF" height="12" style="stroke:#000000;stroke-width:1.5;" width="12" x="356.5" y="995.97"/></g><g class="entity" data-entity="power_supply_12v_out" data-source-line="53" data-uid="ent0029" id="entity_power_supply_12v_out"><text fill="#000000" font-family="Verdana" font-size="14" lengthAdjust="spacing" textLength="167.583" x="419.0385" y="1219.5551">Power Supply Out (12V)</text><rect fill="#FFFFFF" height="12" style="stroke:#000000;stroke-width:1.5;" width="12" x="496.83" y="1194.56"/></g><g class="entity" data-entity="digital_output_3v3_port" data-source-line="54" data-uid="ent0030" id="entity_digital_output_3v3_port"><text fill="#000000" font-family="Verdana" font-size="14" lengthAdjust="spacing" textLength="75.2363" x="296.8818" y="1219.5551">Digital Out</text><text fill="#000000" font-family="Verdana" font-size="14" lengthAdjust="spacing" textLength="85.7705" x="291.6147" y="1235.852">(3V3 Signal)</text><rect fill="#FFFFFF" height="12" style="stroke:#000000;stroke-width:1.5;" width="12" x="328.5" y="1194.56"/></g><!--entity voltage_stabilizer--><g class="entity" data-entity="voltage_stabilizer" data-source-line="56" data-uid="ent0031" id="entity_voltage_stabilizer"><rect fill="#EEEEEE" height="39.2969" rx="2.5" ry="2.5" style="stroke:#000000;stroke-width:1;" width="153.2793" x="445.36" y="1105.12"/><polygon fill="#EEEEEE" points="581.6393,1110.12,581.6393,1124.12,593.6393,1124.12,593.6393,1116.12,587.6393,1110.12,581.6393,1110.12" style="stroke:#000000;stroke-width:1;"/><line style="stroke:#000000;stroke-width:1;" x1="587.6393" x2="587.6393" y1="1110.12" y2="1116.12"/><line style="stroke:#000000;stroke-width:1;" x1="593.6393" x2="587.6393" y1="1116.12" y2="1116.12"/><text fill="#000000" font-family="Verdana" font-size="14" lengthAdjust="spacing" textLength="123.2793" x="455.36" y="1131.1151">Voltage Stabilizer</text></g><!--entity logic_converter--><g class="entity" data-entity="logic_converter" data-source-line="57" data-uid="ent0032" id="entity_logic_converter"><rect fill="#EEEEEE" height="55.5938" rx="2.5" ry="2.5" style="stroke:#000000;stroke-width:1;" width="141.3779" x="269.31" y="1096.97"/><polygon fill="#EEEEEE" points="393.6879,1101.97,393.6879,1115.97,405.6879,1115.97,405.6879,1107.97,399.6879,1101.97,393.6879,1101.97" style="stroke:#000000;stroke-width:1;"/><line style="stroke:#000000;stroke-width:1;" x1="399.6879" x2="399.6879" y1="1101.97" y2="1107.97"/><line style="stroke:#000000;stroke-width:1;" x1="405.6879" x2="399.6879" y1="1107.97" y2="1107.97"/><text fill="#000000" font-family="Verdana" font-size="14" lengthAdjust="spacing" textLength="105.2393" x="279.31" y="1122.9651">12V/3.3V Logic</text><text fill="#000000" font-family="Verdana" font-size="14" lengthAdjust="spacing" textLength="111.3779" x="279.31" y="1139.262">Level Converter</text></g><!--entity sample--><g class="entity" data-entity="sample" data-source-line="12" data-uid="ent0002" id="entity_sample"><rect fill="#EEEEEE" height="39.2969" rx="2.5" ry="2.5" style="stroke:#000000;stroke-width:1;" width="169.1455" x="641.43" y="12"/><polygon fill="#EEEEEE" points="793.5755,17,793.5755,31,805.5755,31,805.5755,23,799.5755,17,793.5755,17" style="stroke:#000000;stroke-width:1;"/><line style="stroke:#000000;stroke-width:1;" x1="799.5755" x2="799.5755" y1="17" y2="23"/><line style="stroke:#000000;stroke-width:1;" x1="805.5755" x2="799.5755" y1="23" y2="23"/><text fill="#000000" font-family="Verdana" font-size="14" lengthAdjust="spacing" textLength="139.1455" x="651.43" y="37.9951">Radioactive Sample</text></g><!--entity data_logger--><g class="entity" data-entity="data_logger" data-source-line="42" data-uid="ent0021" id="entity_data_logger"><rect fill="#EEEEEE" height="39.2969" rx="2.5" ry="2.5" style="stroke:#000000;stroke-width:1;" width="188.9834" x="480.51" y="883.67"/><polygon fill="#EEEEEE" points="652.4934,888.67,652.4934,902.67,664.4934,902.67,664.4934,894.67,658.4934,888.67,652.4934,888.67" style="stroke:#000000;stroke-width:1;"/><line style="stroke:#000000;stroke-width:1;" x1="658.4934" x2="658.4934" y1="888.67" y2="894.67"/><line style="stroke:#000000;stroke-width:1;" x1="664.4934" x2="658.4934" y1="894.67" y2="894.67"/><text fill="#000000" font-family="Verdana" font-size="14" lengthAdjust="spacing" textLength="158.9834" x="490.51" y="909.6651">Hardware Data Logger</text></g><!--entity oscilloscope--><g class="entity" data-entity="oscilloscope" data-source-line="43" data-uid="ent0022" id="entity_oscilloscope"><rect fill="#EEEEEE" height="39.2969" rx="2.5" ry="2.5" style="stroke:#000000;stroke-width:1;" width="117.3018" x="149.35" y="883.67"/><polygon fill="#EEEEEE" points="249.6518,888.67,249.6518,902.67,261.6518,902.67,261.6518,894.67,255.6518,888.67,249.6518,888.67" style="stroke:#000000;stroke-width:1;"/><line style="stroke:#000000;stroke-width:1;" x1="255.6518" x2="255.6518" y1="888.67" y2="894.67"/><line style="stroke:#000000;stroke-width:1;" x1="261.6518" x2="255.6518" y1="894.67" y2="894.67"/><text fill="#000000" font-family="Verdana" font-size="14" lengthAdjust="spacing" textLength="87.3018" x="159.35" y="909.6651">Oscilloscope</text></g><!--entity microcontroller--><g class="entity" data-entity="microcontroller" data-source-line="45" data-uid="ent0023" id="entity_microcontroller"><rect fill="#EEEEEE" height="39.2969" rx="2.5" ry="2.5" style="stroke:#000000;stroke-width:1;" width="180.9238" x="152.54" y="1295.56"/><polygon fill="#EEEEEE" points="316.4638,1300.56,316.4638,1314.56,328.4638,1314.56,328.4638,1306.56,322.4638,1300.56,316.4638,1300.56" style="stroke:#000000;stroke-width:1;"/><line style="stroke:#000000;stroke-width:1;" x1="322.4638" x2="322.4638" y1="1300.56" y2="1306.56"/><line style="stroke:#000000;stroke-width:1;" x1="328.4638" x2="322.4638" y1="1306.56" y2="1306.56"/><text fill="#000000" font-family="Verdana" font-size="14" lengthAdjust="spacing" textLength="150.9238" x="162.54" y="1321.5551">Microcontroller Board</text></g><!--entity power_supply--><g class="entity" data-entity="power_supply" data-source-line="46" data-uid="ent0024" id="entity_power_supply"><rect fill="#EEEEEE" height="55.5938" rx="2.5" ry="2.5" style="stroke:#000000;stroke-width:1;" width="191.3486" x="803.33" y="1096.97"/><polygon fill="#EEEEEE" points="977.6786,1101.97,977.6786,1115.97,989.6786,1115.97,989.6786,1107.97,983.6786,1101.97,977.6786,1101.97" style="stroke:#000000;stroke-width:1;"/><line style="stroke:#000000;stroke-width:1;" x1="983.6786" x2="983.6786" y1="1101.97" y2="1107.97"/><line style="stroke:#000000;stroke-width:1;" x1="989.6786" x2="983.6786" y1="1107.97" y2="1107.97"/><text fill="#000000" font-family="Verdana" font-size="14" lengthAdjust="spacing" textLength="161.3486" x="813.33" y="1122.9651">Low-cost Power Supply</text><text fill="#000000" font-family="Verdana" font-size="14" lengthAdjust="spacing" textLength="63.3213" x="813.33" y="1139.262">(15V DC)</text></g><!--entity logic_analyzer--><g class="entity" data-entity="logic_analyzer" data-source-line="47" data-uid="ent0025" id="entity_logic_analyzer"><rect fill="#EEEEEE" height="39.2969" rx="2.5" ry="2.5" style="stroke:#000000;stroke-width:1;" width="198.5742" x="338.71" y="1295.56"/><polygon fill="#EEEEEE" points="520.2842,1300.56,520.2842,1314.56,532.2842,1314.56,532.2842,1306.56,526.2842,1300.56,520.2842,1300.56" style="stroke:#000000;stroke-width:1;"/><line style="stroke:#000000;stroke-width:1;" x1="526.2842" x2="526.2842" y1="1300.56" y2="1306.56"/><line style="stroke:#000000;stroke-width:1;" x1="532.2842" x2="526.2842" y1="1306.56" y2="1306.56"/><text fill="#000000" font-family="Verdana" font-size="14" lengthAdjust="spacing" textLength="168.5742" x="348.71" y="1321.5551">Low-cost Logic Analyzer</text></g><g class="entity" data-entity="GMN46" data-source-line="78" data-uid="ent0047" id="entity_GMN46"><path d="M633.62,1097.07 L633.62,1120.77 L598.91,1124.77 L633.62,1128.77 L633.62,1152.4684 A0,0 0 0 0 633.62,1152.4684 L768.3763,1152.4684 A0,0 0 0 0 768.3763,1152.4684 L768.3763,1107.07 L758.3763,1097.07 L633.62,1097.07 A0,0 0 0 0 633.62,1097.07" fill="#FFAAAA" style="stroke:#000000;stroke-width:1;"/><path d="M758.3763,1097.07 L758.3763,1107.07 L768.3763,1107.07 L758.3763,1097.07" fill="#FFAAAA" style="stroke:#000000;stroke-width:1;"/><text fill="#000000" font-family="Verdana" font-size="13" font-weight="bold" lengthAdjust="spacing" textLength="98.9727" x="639.62" y="1114.1369">Sensor needs</text><text fill="#000000" font-family="Verdana" font-size="13" font-weight="bold" lengthAdjust="spacing" textLength="109.624" x="639.62" y="1129.2697">ultra-low noise</text><text fill="#000000" font-family="Verdana" font-size="13" lengthAdjust="spacing" textLength="4.1323" x="749.244" y="1129.2697">&#160;</text><text fill="#000000" font-family="Verdana" font-size="13" font-weight="bold" lengthAdjust="spacing" textLength="98.5347" x="639.62" y="1144.4025">power supply</text></g><!--link polarization_voltage to sensor--><g class="link" data-entity-1="polarization_voltage" data-entity-2="sensor" data-source-line="29" data-uid="lnk13" id="link_polarization_voltage_sensor"><path d="M250.34,253.09 C285.31,253.09 319.9,253.09 355.74,253.09" fill="none" id="polarization_voltage-to-sensor" style="stroke:#000000;stroke-width:1;"/><polygon fill="#000000" points="361.74,253.09,352.74,249.09,356.74,253.09,352.74,257.09,361.74,253.09" style="stroke:#000000;stroke-width:1;"/><text fill="#000000" font-family="Verdana" font-size="13" lengthAdjust="spacing" textLength="76.0195" x="268.01" y="246.1569">Polarization</text></g><!--link sample to sensor_window--><g class="link" data-entity-1="sample" data-entity-2="sensor_window" data-source-line="30" data-uid="lnk14" id="link_sample_sensor_window"><path d="M726,51.76 C726,78.37 726,119.06 726,134.32" fill="none" id="sample-to-sensor_window" style="stroke:#000000;stroke-width:1;"/><polygon fill="#000000" points="726,140.32,730,131.32,726,135.32,722,131.32,726,140.32" style="stroke:#000000;stroke-width:1;"/><text fill="#000000" font-family="Verdana" font-size="13" lengthAdjust="spacing" textLength="106.6787" x="727" y="94.3669">Radiation Decay</text></g><!--link sensor_window to sensor--><g class="link" data-entity-1="sensor_window" data-entity-2="sensor" data-source-line="31" data-uid="lnk15" id="link_sensor_window_sensor"><path d="M711.15,152.28 C681.2,162.41 611.51,186.4 554,209.3 C541.84,214.14 534.4486,217.1819 522.1486,222.4919" fill="none" id="sensor_window-to-sensor" style="stroke:#000000;stroke-width:1;"/><polygon fill="#000000" points="516.64,224.87,526.4883,224.9752,521.2305,222.8882,523.3175,217.6305,516.64,224.87" style="stroke:#000000;stroke-width:1;"/></g><!--link sensor to transimpedance_amplifier--><g class="link" data-entity-1="sensor" data-entity-2="transimpedance_amplifier" data-source-line="32" data-uid="lnk16" id="link_sensor_transimpedance_amplifier"><path d="M361.74,267.05 C310.17,276.28 253.64,290.66 238,310.89 C216.8,338.32 238.8267,356.7586 275.9967,371.1886" fill="none" id="sensor-to-transimpedance_amplifier" style="stroke:#000000;stroke-width:1;"/><polygon fill="#000000" points="281.59,373.36,274.6477,366.374,276.9289,371.5505,271.7524,373.8318,281.59,373.36" style="stroke:#000000;stroke-width:1;"/><text fill="#000000" font-family="Verdana" font-size="13" lengthAdjust="spacing" textLength="102.667" x="267.2947" y="323.9569">Pulse of current</text><text fill="#000000" font-family="Verdana" font-size="13" lengthAdjust="spacing" textLength="159.2563" x="239" y="339.0897">when radiation detected</text></g><!--link transimpedance_amplifier to inverting_amplifier--><g class="link" data-entity-1="transimpedance_amplifier" data-entity-2="inverting_amplifier" data-source-line="33" data-uid="lnk17" id="link_transimpedance_amplifier_inverting_amplifier"><path d="M281.67,426.25 C266.82,434.17 253.45,444.64 244,458.49 C222.43,490.1 258.489,507.5061 302.699,518.2261" fill="none" id="transimpedance_amplifier-to-inverting_amplifier" style="stroke:#000000;stroke-width:1;"/><polygon fill="#000000" points="308.53,519.64,300.7261,513.6318,303.6708,518.4617,298.8409,521.4065,308.53,519.64" style="stroke:#000000;stroke-width:1;"/><text fill="#000000" font-family="Verdana" font-size="13" lengthAdjust="spacing" textLength="153.1816" x="245" y="471.5569">Amplified voltage pulse</text></g><!--link inverting_amplifier to adc--><g class="link" data-entity-1="inverting_amplifier" data-entity-2="adc" data-source-line="34" data-uid="lnk18" id="link_inverting_amplifier_adc"><path d="M387.3,561.49 C387.2,575.68 388.33,593.14 393,608.08 C396.22,618.36 398.4869,623.6092 404.1869,632.5592" fill="none" id="inverting_amplifier-to-adc" style="stroke:#000000;stroke-width:1;"/><polygon fill="#000000" points="407.41,637.62,405.9492,627.8801,404.7241,633.4027,399.2015,632.1775,407.41,637.62" style="stroke:#000000;stroke-width:1;"/><text fill="#000000" font-family="Verdana" font-size="13" lengthAdjust="spacing" textLength="151.4233" x="394" y="604.1469">Further amplified pulse</text></g><!--link inverting_amplifier to analog_output--><g class="link" data-entity-1="inverting_amplifier" data-entity-2="analog_output" data-source-line="37" data-uid="lnk19" id="link_inverting_amplifier_analog_output"><path d="M333.2,561.52 C303.41,579.1 269.05,604.91 250,638.08 C221.23,688.17 228.6144,757.3199 231.4044,776.9199" fill="none" id="inverting_amplifier-to-analog_output" style="stroke:#000000;stroke-width:1;"/><polygon fill="#000000" points="232.25,782.86,234.9417,773.3861,231.5454,777.9099,227.0216,774.5135,232.25,782.86" style="stroke:#000000;stroke-width:1;"/><text fill="#000000" font-family="Verdana" font-size="13" lengthAdjust="spacing" textLength="55.4658" x="251" y="670.4469">Provides</text></g><!--link adc to digital_output_12v--><g class="link" data-entity-1="adc" data-entity-2="digital_output_12v" data-source-line="38" data-uid="lnk20" id="link_adc_digital_output_12v"><path d="M428,693.98 C428,723.48 428,762.37 428,776.93" fill="none" id="adc-to-digital_output_12v" style="stroke:#000000;stroke-width:1;"/><polygon fill="#000000" points="428,782.93,432,773.93,428,777.93,424,773.93,428,782.93" style="stroke:#000000;stroke-width:1;"/><text fill="#000000" font-family="Verdana" font-size="13" lengthAdjust="spacing" textLength="55.4658" x="429" y="736.7369">Provides</text></g><!--link power_supply_15v_in to voltage_stabilizer--><g class="link" data-entity-1="power_supply_15v_in" data-entity-2="voltage_stabilizer" data-source-line="59" data-uid="lnk33" id="link_power_supply_15v_in_voltage_stabilizer"><path d="M522,1007.85 C522,1024.01 522,1070.3 522,1098.81" fill="none" id="power_supply_15v_in-to-voltage_stabilizer" style="stroke:#000000;stroke-width:1;"/><polygon fill="#000000" points="522,1104.81,526,1095.81,522,1099.81,518,1095.81,522,1104.81" style="stroke:#000000;stroke-width:1;"/></g><!--link voltage_stabilizer to power_supply_12v_out--><g class="link" data-entity-1="voltage_stabilizer" data-entity-2="power_supply_12v_out" data-source-line="60" data-uid="lnk34" id="link_voltage_stabilizer_power_supply_12v_out"><path d="M522,1144.77 C522,1161.51 522,1178.74 522,1188.7" fill="none" id="voltage_stabilizer-to-power_supply_12v_out" style="stroke:#000000;stroke-width:1;"/><polygon fill="#000000" points="522,1194.7,526,1185.7,522,1189.7,518,1185.7,522,1194.7" style="stroke:#000000;stroke-width:1;"/></g><!--link digital_output_12v to digital_input_12v_port--><g class="link" data-entity-1="digital_output_12v" data-entity-2="digital_input_12v_port" data-source-line="61" data-uid="lnk35" id="link_digital_output_12v_digital_input_12v_port"><path d="M426.63,794.48 C418.58,822.86 378.9586,962.3781 370.9786,990.4881" fill="none" id="digital_output_12v-to-digital_input_12v_port" style="stroke:#000000;stroke-width:1;"/><polygon fill="#000000" points="369.34,996.26,375.6458,988.6945,370.7055,991.4501,367.9499,986.5097,369.34,996.26" style="stroke:#000000;stroke-width:1;"/></g><!--link analog_output to oscilloscope--><g class="link" data-entity-1="analog_output" data-entity-2="oscilloscope" data-source-line="65" data-uid="lnk36" id="link_analog_output_oscilloscope"><path d="M222.98,790.53 C200.73,793.02 147.42,802.47 125,836.67 C112.46,855.8 126.3723,869.1891 149.4923,880.6291" fill="none" id="analog_output-to-oscilloscope" style="stroke:#000000;stroke-width:1;"/><polygon fill="#000000" points="154.87,883.29,148.5774,875.7135,150.3886,881.0726,145.0295,882.8837,154.87,883.29" style="stroke:#000000;stroke-width:1;"/><text fill="#000000" font-family="Verdana" font-size="13" lengthAdjust="spacing" textLength="118.5679" x="126" y="849.7369">Analog Monitoring</text></g><!--link digital_output_12v to oscilloscope--><g class="link" data-entity-1="digital_output_12v" data-entity-2="oscilloscope" data-source-line="66" data-uid="lnk37" id="link_digital_output_12v_oscilloscope"><path d="M416.63,791.84 C391.6,796.93 330.34,811.2 285,836.67 C262.64,849.23 245.0087,864.6036 230.3187,879.1136" fill="none" id="digital_output_12v-to-oscilloscope" style="stroke:#000000;stroke-width:1;"/><polygon fill="#000000" points="226.05,883.33,235.264,879.8512,229.6073,879.8163,229.6421,874.1596,226.05,883.33" style="stroke:#000000;stroke-width:1;"/><text fill="#000000" font-family="Verdana" font-size="13" lengthAdjust="spacing" textLength="115.813" x="286" y="849.7369">Digital Monitoring</text></g><!--link digital_output_12v to data_logger--><g class="link" data-entity-1="digital_output_12v" data-entity-2="data_logger" data-source-line="67" data-uid="lnk38" id="link_digital_output_12v_data_logger"><path d="M434.32,794.51 C454.05,809.63 510.507,852.9012 545.347,879.5912" fill="none" id="digital_output_12v-to-data_logger" style="stroke:#000000;stroke-width:1;"/><polygon fill="#000000" points="550.11,883.24,545.398,874.5915,546.1408,880.1993,540.533,880.9421,550.11,883.24" style="stroke:#000000;stroke-width:1;"/><text fill="#000000" font-family="Verdana" font-size="13" lengthAdjust="spacing" textLength="86.9756" x="511.3" y="849.7369">Data Logging</text></g><!--link digital_input_12v_port to logic_converter--><g class="link" data-entity-1="digital_input_12v_port" data-entity-2="logic_converter" data-source-line="68" data-uid="lnk39" id="link_digital_input_12v_port_logic_converter"><path d="M366.87,1007.85 C363.46,1022.55 354.4739,1061.3148 347.6639,1090.7148" fill="none" id="digital_input_12v_port-to-logic_converter" style="stroke:#000000;stroke-width:1;"/><polygon fill="#000000" points="346.31,1096.56,352.2377,1088.6948,347.4383,1091.689,344.4441,1086.8895,346.31,1096.56" style="stroke:#000000;stroke-width:1;"/><text fill="#000000" font-family="Verdana" font-size="13" lengthAdjust="spacing" textLength="115.7939" x="357.51" y="1063.0369">12V Digital Signal</text></g><!--link logic_converter to digital_output_3v3_port--><g class="link" data-entity-1="logic_converter" data-entity-2="digital_output_3v3_port" data-source-line="69" data-uid="lnk40" id="link_logic_converter_digital_output_3v3_port"><path d="M340,1152.83 C340,1168.29 340,1180.25 340,1188.7" fill="none" id="logic_converter-to-digital_output_3v3_port" style="stroke:#000000;stroke-width:1;"/><polygon fill="#000000" points="340,1194.7,344,1185.7,340,1189.7,336,1185.7,340,1194.7" style="stroke:#000000;stroke-width:1;"/></g><!--link digital_output_3v3_port to microcontroller--><g class="link" data-entity-1="digital_output_3v3_port" data-entity-2="microcontroller" data-source-line="70" data-uid="lnk41" id="link_digital_output_3v3_port_microcontroller"><path d="M335.11,1206.36 C326.68,1214.71 308.95,1232.55 295,1248.56 C281.72,1263.8 271.1756,1277.0746 260.9856,1290.3946" fill="none" id="digital_output_3v3_port-to-microcontroller" style="stroke:#000000;stroke-width:1;"/><polygon fill="#000000" points="257.34,1295.16,265.9854,1290.4423,260.378,1291.1888,259.6315,1285.5814,257.34,1295.16" style="stroke:#000000;stroke-width:1;"/><text fill="#000000" font-family="Verdana" font-size="13" lengthAdjust="spacing" textLength="115.7939" x="296" y="1261.6269">3V3 Digital Signal</text></g><!--link digital_output_3v3_port to logic_analyzer--><g class="link" data-entity-1="digital_output_3v3_port" data-entity-2="logic_analyzer" data-source-line="71" data-uid="lnk42" id="link_digital_output_3v3_port_logic_analyzer"><path d="M351.26,1205.63 C367.79,1212.17 398.56,1226.56 416,1248.56 C426.75,1262.13 431.1773,1275.3197 434.0373,1289.4197" fill="none" id="digital_output_3v3_port-to-logic_analyzer" style="stroke:#000000;stroke-width:1;"/><polygon fill="#000000" points="435.23,1295.3,437.3611,1285.6845,434.2361,1290.3998,429.5207,1287.2748,435.23,1295.3" style="stroke:#000000;stroke-width:1;"/></g><!--link power_supply_12v_out to power_supply_in_12v--><g class="link" data-entity-1="power_supply_12v_out" data-entity-2="power_supply_in_12v" data-source-line="74" data-uid="lnk43" id="link_power_supply_12v_out_power_supply_in_12v"><path d="M547.1,1199.14 C641.93,1197.34 974.88,1189.02 1012,1160.56 C1049.85,1131.55 1048,1107.16 1048,1059.47 C1048,252.09 1048,252.09 1048,252.09 C1048,191.99 970.9626,164.4063 930.5126,153.7663" fill="none" id="power_supply_12v_out-to-power_supply_in_12v" style="stroke:#000000;stroke-width:1;"/><polygon fill="#000000" points="924.71,152.24,932.3964,158.3979,929.5455,153.5119,934.4315,150.6611,924.71,152.24" style="stroke:#000000;stroke-width:1;"/></g><!--reverse link power_supply_15v_in to power_supply--><g class="link" data-entity-1="power_supply_15v_in" data-entity-2="power_supply" data-source-line="75" data-uid="lnk45" id="link_power_supply_15v_in_power_supply"><path d="M542.9638,1009.6811 C588.8338,1024.3811 722.35,1067.16 814.09,1096.56" fill="none" id="power_supply_15v_in-backto-power_supply" style="stroke:#000000;stroke-width:1;"/><polygon fill="#000000" points="537.25,1007.85,544.5999,1014.4058,542.0115,1009.3759,547.0414,1006.7875,537.25,1007.85" style="stroke:#000000;stroke-width:1;"/><text fill="#000000" font-family="Verdana" font-size="13" lengthAdjust="spacing" textLength="92.5552" x="711.5" y="1063.0369">15V DC Power</text></g><!--SRC=[ZLPBRziu4BxhLyowXsuFtY9LaosA8e1ZEzW22HAiTzrB0O6H68KeJGeaPSTTzB_ly2NhcLO7mnhED-_vgD_C4zrHg3XX8j7VcAY88ZiGig3mNmBuN97yMwbaBOgbv5B1gsjybilaHqkzaifCgQylrXVNYuuwKOOzadmQibwZVjAepVuc1PFuZ-qfRCYkudG6H8DsVvF4HJlRq1tBfIZgtA2H4uIP8woeeLRiO4Lu2Uvjy4p0x5uUg89DNLNy29y5_7xsRll60IfxacbtaZ6HdRtRTv0RAZIQ-y948Gy-CYV93axYT1k0h36XXI1Sbd1N6wTEt6k6HrLjkfehLZ93k5NzAcn8i64bgll82dyQa4rWxiV8ac9tbS_oLCnkdNpiQ3g5PxYw_vA-VzFAe0UzbvmezfqO9WLi9JUaf0XzZr0RsHKnXYf6TIpRIJlRU-sUmNyK4PhjAbeGaLDOO3_P8wCsdhlxnSNvd_zwKwQZbv6erpFtMUofRKavj7GHBB6eCcbaiLeYwEOsFV_WUWEvtDcvnMfv4wJ8VOL_kD_NE2oODlO4DON0qS9yTUZYi08mLwnyClFBK6BusAthp27zQCCSnqSqgc6UBCAEjs_3YkRa640ThIwsfT2SJ5NLXLHpJK4-GbuhHGKEt-692b2DNxz5jF2k9qr5NoDrjsvYdmg8vQciOszq31FjsIOW_hfMTiQ1D7O2FhHcUUe8BeHRA_qJszPuUnzTDPJSiu9g7vVr7UCORc1N7tdiDQoVcm7PLL9WENMBtVuYgZWGHM55384RMPOq41M-PzozjzJlTCuubpgNbQT1sHAqMVEMvKhYI1ebESVqhYGwSeXTzwI5kP67UIwrWJORMk8vty9gEQJ3CIXcm7Am57Vy7ZBXLfIH88gClQYV6MT47LkXDJ8dWbVSBii3h-dBREr37A7hi_CzKdO76YdLeoOO5UygtyxCmf8kANUS8pDFtHKMBbzcz7IRliJewJvj1N0gTY1Vs1ZoWFMATGvBbEb6tCDXd6_JFzAjRz9NSKFtbDijiTlGQLOUPJ7tGL41nt_eq5FZY1or9uipiaNDCevt1FncZUvtTttHH7j37Eluw_TM2eQiZYGmIyOY6476vlq2jBMz3XcNkuFf9MLnlV9Rh1tIwDaFoopfgmsvg9cT2RdprgC2wysEPD_Rf8b0Wxq51soDNvBJbPYCTNym5U7pgYs3ULqDXiTFeAsDOoRlRMQPnL1mDwozl4R6q7x0Bl1nS_VfuJ9yl0bA2_tfxSDbbDSSxxGvnujKIAQfFO9uva817uh3K560zVm_]--></g></svg>