<svg xmlns="http://www.w3.org/2000/svg" xmlns:xlink="http://www.w3.org/1999/xlink" contentStyleType="text/css" height="1086px" preserveAspectRatio="none" style="width:813px;height:1086px;background:#FFFFFF;" version="1.1" viewBox="0 0 813 1086" width="813px" zoomAndPan="magnify"><defs/><g><!--cluster detector--><g id="cluster_detector"><path d="M138.03,133.6 L439.5925,133.6 A3.75,3.75 0 0 1 442.0925,136.1 L449.0925,155.8969 L699.03,155.8969 A2.5,2.5 0 0 1 701.53,158.3969 L701.53,651.47 A2.5,2.5 0 0 1 699.03,653.97 L138.03,653.97 A2.5,2.5 0 0 1 135.53,651.47 L135.53,136.1 A2.5,2.5 0 0 1 138.03,133.6 " fill="none" style="stroke:#000000;stroke-width:1.5;"/><line style="stroke:#000000;stroke-width:1.5;" x1="135.53" x2="449.0925" y1="155.8969" y2="155.8969"/><text fill="#000000" font-family="sans-serif" font-size="14" font-weight="bold" lengthAdjust="spacing" textLength="300.5625" x="139.53" y="148.5951">Semiconductor Radioactivity Detector</text></g><!--entity sensor--><g id="elem_sensor"><rect fill="#F1F1F1" height="55.5938" rx="2.5" ry="2.5" style="stroke:#181818;stroke-width:0.5;" width="187.8691" x="178.59" y="176.6"/><polygon fill="#F1F1F1" points="349.4591,181.6,349.4591,195.6,361.4591,195.6,361.4591,187.6,355.4591,181.6,349.4591,181.6" style="stroke:#181818;stroke-width:0.5;"/><line style="stroke:#181818;stroke-width:0.5;" x1="355.4591" x2="355.4591" y1="181.6" y2="187.6"/><line style="stroke:#181818;stroke-width:0.5;" x1="361.4591" x2="355.4591" y1="187.6" y2="187.6"/><text fill="#000000" font-family="sans-serif" font-size="14" lengthAdjust="spacing" textLength="157.8691" x="188.59" y="202.5951">Semiconductor Sensor</text><text fill="#000000" font-family="sans-serif" font-size="14" lengthAdjust="spacing" textLength="86.7207" x="188.59" y="218.892">(3 x BPW34)</text></g><!--entity polarization_voltage--><g id="elem_polarization_voltage"><rect fill="#F1F1F1" height="55.5938" rx="2.5" ry="2.5" style="stroke:#181818;stroke-width:0.5;" width="169.918" x="507.57" y="176.6"/><polygon fill="#F1F1F1" points="660.488,181.6,660.488,195.6,672.488,195.6,672.488,187.6,666.488,181.6,660.488,181.6" style="stroke:#181818;stroke-width:0.5;"/><line style="stroke:#181818;stroke-width:0.5;" x1="666.488" x2="666.488" y1="181.6" y2="187.6"/><line style="stroke:#181818;stroke-width:0.5;" x1="672.488" x2="666.488" y1="187.6" y2="187.6"/><text fill="#000000" font-family="sans-serif" font-size="14" lengthAdjust="spacing" textLength="139.918" x="517.57" y="202.5951">Polarization Voltage</text><text fill="#000000" font-family="sans-serif" font-size="14" lengthAdjust="spacing" textLength="132.1865" x="517.57" y="218.892">(4 x 12V Batteries)</text></g><!--entity transimpedance_amplifier--><g id="elem_transimpedance_amplifier"><rect fill="#F1F1F1" height="55.5938" rx="2.5" ry="2.5" style="stroke:#181818;stroke-width:0.5;" width="214.249" x="178.4" y="309.19"/><polygon fill="#F1F1F1" points="375.649,314.19,375.649,328.19,387.649,328.19,387.649,320.19,381.649,314.19,375.649,314.19" style="stroke:#181818;stroke-width:0.5;"/><line style="stroke:#181818;stroke-width:0.5;" x1="381.649" x2="381.649" y1="314.19" y2="320.19"/><line style="stroke:#181818;stroke-width:0.5;" x1="387.649" x2="381.649" y1="320.19" y2="320.19"/><text fill="#000000" font-family="sans-serif" font-size="14" lengthAdjust="spacing" textLength="184.249" x="188.4" y="335.1851">Transimpedance Amplifier</text><text fill="#000000" font-family="sans-serif" font-size="14" lengthAdjust="spacing" textLength="76.9316" x="188.4" y="351.482">(OPA657U)</text></g><!--entity inverting_amplifier--><g id="elem_inverting_amplifier"><rect fill="#F1F1F1" height="55.5938" rx="2.5" ry="2.5" style="stroke:#181818;stroke-width:0.5;" width="160.3135" x="205.37" y="441.79"/><polygon fill="#F1F1F1" points="348.6835,446.79,348.6835,460.79,360.6835,460.79,360.6835,452.79,354.6835,446.79,348.6835,446.79" style="stroke:#181818;stroke-width:0.5;"/><line style="stroke:#181818;stroke-width:0.5;" x1="354.6835" x2="354.6835" y1="446.79" y2="452.79"/><line style="stroke:#181818;stroke-width:0.5;" x1="360.6835" x2="354.6835" y1="452.79" y2="452.79"/><text fill="#000000" font-family="sans-serif" font-size="14" lengthAdjust="spacing" textLength="130.3135" x="215.37" y="467.7851">Inverting Amplifier</text><text fill="#000000" font-family="sans-serif" font-size="14" lengthAdjust="spacing" textLength="76.9316" x="215.37" y="484.082">(OPA656U)</text></g><!--entity adc--><g id="elem_adc"><rect fill="#F1F1F1" height="55.5938" rx="2.5" ry="2.5" style="stroke:#181818;stroke-width:0.5;" width="206.8389" x="299.11" y="574.38"/><polygon fill="#F1F1F1" points="488.9489,579.38,488.9489,593.38,500.9489,593.38,500.9489,585.38,494.9489,579.38,488.9489,579.38" style="stroke:#181818;stroke-width:0.5;"/><line style="stroke:#181818;stroke-width:0.5;" x1="494.9489" x2="494.9489" y1="579.38" y2="585.38"/><line style="stroke:#181818;stroke-width:0.5;" x1="500.9489" x2="494.9489" y1="585.38" y2="585.38"/><text fill="#000000" font-family="sans-serif" font-size="14" lengthAdjust="spacing" textLength="30.1328" x="309.11" y="600.3751">ADC</text><text fill="#000000" font-family="sans-serif" font-size="14" lengthAdjust="spacing" textLength="176.8389" x="309.11" y="616.672">(LM358 as a comparator)</text></g><!--entity power_supply--><g id="elem_power_supply"><rect fill="#F1F1F1" height="55.5938" rx="2.5" ry="2.5" style="stroke:#181818;stroke-width:0.5;" width="124.9854" x="55.04" y="7"/><polygon fill="#F1F1F1" points="163.0254,12,163.0254,26,175.0254,26,175.0254,18,169.0254,12,163.0254,12" style="stroke:#181818;stroke-width:0.5;"/><line style="stroke:#181818;stroke-width:0.5;" x1="169.0254" x2="169.0254" y1="12" y2="18"/><line style="stroke:#181818;stroke-width:0.5;" x1="175.0254" x2="169.0254" y1="18" y2="18"/><text fill="#000000" font-family="sans-serif" font-size="14" lengthAdjust="spacing" textLength="94.9854" x="65.04" y="32.9951">Power Supply</text><text fill="#000000" font-family="sans-serif" font-size="14" lengthAdjust="spacing" textLength="63.3213" x="65.04" y="49.292">(12V DC)</text></g><!--entity sample--><g id="elem_sample"><rect fill="#F1F1F1" height="39.2969" rx="2.5" ry="2.5" style="stroke:#181818;stroke-width:0.5;" width="169.1455" x="214.96" y="15.15"/><polygon fill="#F1F1F1" points="367.1055,20.15,367.1055,34.15,379.1055,34.15,379.1055,26.15,373.1055,20.15,367.1055,20.15" style="stroke:#181818;stroke-width:0.5;"/><line style="stroke:#181818;stroke-width:0.5;" x1="373.1055" x2="373.1055" y1="20.15" y2="26.15"/><line style="stroke:#181818;stroke-width:0.5;" x1="379.1055" x2="373.1055" y1="26.15" y2="26.15"/><text fill="#000000" font-family="sans-serif" font-size="14" lengthAdjust="spacing" textLength="139.1455" x="224.96" y="41.1451">Radioactive Sample</text></g><!--entity analog_output--><g id="elem_analog_output"><ellipse cx="124.53" cy="769.97" fill="#F1F1F1" rx="8" ry="8" style="stroke:#181818;stroke-width:0.5;"/><text fill="#000000" font-family="sans-serif" font-size="14" lengthAdjust="spacing" textLength="101.4521" x="73.8039" y="799.9651">Analog Output</text></g><!--entity digital_output--><g id="elem_digital_output"><ellipse cx="416.53" cy="769.97" fill="#F1F1F1" rx="8" ry="8" style="stroke:#181818;stroke-width:0.5;"/><text fill="#000000" font-family="sans-serif" font-size="14" lengthAdjust="spacing" textLength="98.4854" x="367.2873" y="799.9651">Digital Output</text><text fill="#000000" font-family="sans-serif" font-size="14" lengthAdjust="spacing" textLength="85.7705" x="367.2873" y="816.262">(12V Signal)</text></g><!--entity data_logger--><g id="elem_data_logger"><rect fill="#F1F1F1" height="55.5938" rx="2.5" ry="2.5" style="stroke:#181818;stroke-width:0.5;" width="232.7813" x="569.14" y="891.97"/><polygon fill="#F1F1F1" points="784.9213,896.97,784.9213,910.97,796.9213,910.97,796.9213,902.97,790.9213,896.97,784.9213,896.97" style="stroke:#181818;stroke-width:0.5;"/><line style="stroke:#181818;stroke-width:0.5;" x1="790.9213" x2="790.9213" y1="896.97" y2="902.97"/><line style="stroke:#181818;stroke-width:0.5;" x1="796.9213" x2="790.9213" y1="902.97" y2="902.97"/><text fill="#000000" font-family="sans-serif" font-size="14" lengthAdjust="spacing" textLength="158.9834" x="579.14" y="917.9651">Hardware Data Logger</text><text fill="#000000" font-family="sans-serif" font-size="14" lengthAdjust="spacing" textLength="202.7813" x="579.14" y="934.262">(See sub-project description)</text></g><!--entity oscilloscope--><g id="elem_oscilloscope"><rect fill="#F1F1F1" height="39.2969" rx="2.5" ry="2.5" style="stroke:#181818;stroke-width:0.5;" width="231.0586" x="7" y="900.12"/><polygon fill="#F1F1F1" points="221.0586,905.12,221.0586,919.12,233.0586,919.12,233.0586,911.12,227.0586,905.12,221.0586,905.12" style="stroke:#181818;stroke-width:0.5;"/><line style="stroke:#181818;stroke-width:0.5;" x1="227.0586" x2="227.0586" y1="905.12" y2="911.12"/><line style="stroke:#181818;stroke-width:0.5;" x1="233.0586" x2="227.0586" y1="911.12" y2="911.12"/><text fill="#000000" font-family="sans-serif" font-size="14" lengthAdjust="spacing" textLength="201.0586" x="17" y="926.1151">Oscilloscope (for debugging)</text></g><!--entity logic_converter--><g id="elem_logic_converter"><rect fill="#F1F1F1" height="55.5938" rx="2.5" ry="2.5" style="stroke:#181818;stroke-width:0.5;" width="251.0674" x="283" y="891.97"/><polygon fill="#F1F1F1" points="517.0674,896.97,517.0674,910.97,529.0674,910.97,529.0674,902.97,523.0674,896.97,517.0674,896.97" style="stroke:#181818;stroke-width:0.5;"/><line style="stroke:#181818;stroke-width:0.5;" x1="523.0674" x2="523.0674" y1="896.97" y2="902.97"/><line style="stroke:#181818;stroke-width:0.5;" x1="529.0674" x2="523.0674" y1="902.97" y2="902.97"/><text fill="#000000" font-family="sans-serif" font-size="14" lengthAdjust="spacing" textLength="221.0674" x="293" y="917.9651">12V/3.3V Logic Level Converter</text><text fill="#000000" font-family="sans-serif" font-size="14" lengthAdjust="spacing" textLength="202.7813" x="293" y="934.262">(See sub-project description)</text></g><!--entity microcontroller--><g id="elem_microcontroller"><rect fill="#F1F1F1" height="55.5938" rx="2.5" ry="2.5" style="stroke:#181818;stroke-width:0.5;" width="273.4346" x="271.81" y="1024.57"/><polygon fill="#F1F1F1" points="528.2446,1029.57,528.2446,1043.57,540.2446,1043.57,540.2446,1035.57,534.2446,1029.57,528.2446,1029.57" style="stroke:#181818;stroke-width:0.5;"/><line style="stroke:#181818;stroke-width:0.5;" x1="534.2446" x2="534.2446" y1="1029.57" y2="1035.57"/><line style="stroke:#181818;stroke-width:0.5;" x1="540.2446" x2="534.2446" y1="1035.57" y2="1035.57"/><text fill="#000000" font-family="sans-serif" font-size="14" lengthAdjust="spacing" textLength="150.9238" x="281.81" y="1050.5651">Microcontroller Board</text><text fill="#000000" font-family="sans-serif" font-size="14" lengthAdjust="spacing" textLength="243.4346" x="281.81" y="1066.862">(Raspberry Pi, STM32 Nucleo, etc.)</text></g><!--link sample to sensor--><g id="link_sample_sensor"><path d="M296.48,54.7 C291.7,84.41 283.3546,136.2164 277.8546,170.3464 " fill="none" id="sample-to-sensor" style="stroke:#181818;stroke-width:1.0;"/><polygon fill="#181818" points="276.9,176.27,282.2809,168.021,277.6955,171.3337,274.3828,166.7482,276.9,176.27" style="stroke:#181818;stroke-width:1.0;"/><text fill="#000000" font-family="sans-serif" font-size="13" lengthAdjust="spacing" textLength="106.6787" x="290.53" y="105.6669">Radiation Decay</text></g><!--link power_supply to detector--><g id="link_power_supply_detector"><path d="M121.71,62.73 C125.325,86.045 130.6675,120.485 135.1613,149.4513 C135.2315,149.9038 135.3015,150.3551 135.3713,150.805 C135.4062,151.0299 134.5212,145.3254 134.556,145.5496 " fill="none" id="power_supply-to-detector" style="stroke:#181818;stroke-width:1.0;"/><polygon fill="#181818" points="135.4758,151.4787,138.0488,141.9719,134.7093,146.5378,130.1433,143.1983,135.4758,151.4787" style="stroke:#181818;stroke-width:1.0;"/><text fill="#000000" font-family="sans-serif" font-size="13" lengthAdjust="spacing" textLength="92.5552" x="130.53" y="105.6669">12V DC Power</text></g><!--reverse link sensor to polarization_voltage--><g id="link_sensor_polarization_voltage"><path d="M372.81,204.39 C417.24,204.39 463.85,204.39 507.1,204.39 " fill="none" id="sensor-backto-polarization_voltage" style="stroke:#181818;stroke-width:1.0;"/><polygon fill="#181818" points="366.81,204.39,375.81,208.39,371.81,204.39,375.81,200.39,366.81,204.39" style="stroke:#181818;stroke-width:1.0;"/><text fill="#000000" font-family="sans-serif" font-size="13" lengthAdjust="spacing" textLength="105.5869" x="384.52" y="197.4569">12V Polarization</text></g><!--link sensor to transimpedance_amplifier--><g id="link_sensor_transimpedance_amplifier"><path d="M275.22,232.45 C277.45,254.87 280.0156,280.5895 282.2456,302.9895 " fill="none" id="sensor-to-transimpedance_amplifier" style="stroke:#181818;stroke-width:1.0;"/><polygon fill="#181818" points="282.84,308.96,285.9287,299.608,282.3447,303.9846,277.9681,300.4005,282.84,308.96" style="stroke:#181818;stroke-width:1.0;"/><text fill="#000000" font-family="sans-serif" font-size="13" lengthAdjust="spacing" textLength="319.2173" x="280.53" y="275.2569">Pulse of current when radiation particle detected</text></g><!--link transimpedance_amplifier to inverting_amplifier--><g id="link_transimpedance_amplifier_inverting_amplifier"><path d="M285.53,365.05 C285.53,387.46 285.53,413.15 285.53,435.56 " fill="none" id="transimpedance_amplifier-to-inverting_amplifier" style="stroke:#181818;stroke-width:1.0;"/><polygon fill="#181818" points="285.53,441.56,289.53,432.56,285.53,436.56,281.53,432.56,285.53,441.56" style="stroke:#181818;stroke-width:1.0;"/><text fill="#000000" font-family="sans-serif" font-size="13" lengthAdjust="spacing" textLength="254.0332" x="286.53" y="407.8569">Amplified voltage pulse (analog signal)</text></g><!--link inverting_amplifier to adc--><g id="link_inverting_amplifier_adc"><path d="M309.77,497.64 C329.85,520.05 354.2461,547.2813 374.3161,569.6813 " fill="none" id="inverting_amplifier-to-adc" style="stroke:#181818;stroke-width:1.0;"/><polygon fill="#181818" points="378.32,574.15,375.2933,564.7777,374.9835,570.4261,369.3351,570.1162,378.32,574.15" style="stroke:#181818;stroke-width:1.0;"/><text fill="#000000" font-family="sans-serif" font-size="13" lengthAdjust="spacing" textLength="204.1279" x="351.53" y="540.4469">Further amplified voltage pulse</text></g><!--link adc to digital_output--><g id="link_adc_digital_output"><path d="M404.81,630.18 C408.08,668.91 413.4157,732.1012 415.3657,755.2212 " fill="none" id="adc-to-digital_output" style="stroke:#181818;stroke-width:1.0;"/><polygon fill="#181818" points="415.87,761.2,419.0995,751.8957,415.4498,756.2177,411.1278,752.568,415.87,761.2" style="stroke:#181818;stroke-width:1.0;"/><text fill="#000000" font-family="sans-serif" font-size="13" lengthAdjust="spacing" textLength="115.7939" x="410.53" y="691.0369">12V Digital Signal</text></g><!--link inverting_amplifier to analog_output--><g id="link_inverting_amplifier_analog_output"><path d="M255.35,497.58 C234.96,517.19 208.72,545.29 191.53,574.38 C152.26,640.82 132.7433,727.7978 127.2333,755.1878 " fill="none" id="inverting_amplifier-to-analog_output" style="stroke:#181818;stroke-width:1.0;"/><polygon fill="#181818" points="126.05,761.07,131.7464,753.0356,127.0361,756.1682,123.9035,751.4579,126.05,761.07" style="stroke:#181818;stroke-width:1.0;"/><text fill="#000000" font-family="sans-serif" font-size="13" lengthAdjust="spacing" textLength="88.9814" x="192.53" y="606.7469">Analog Signal</text></g><!--link analog_output to oscilloscope--><g id="link_analog_output_oscilloscope"><path d="M119.77,778.91 C110.94,794.6 93.45,830.77 99.53,861.97 C102.07,875.03 105.0915,883.4288 110.0915,894.1888 " fill="none" id="analog_output-to-oscilloscope" style="stroke:#181818;stroke-width:1.0;"/><polygon fill="#181818" points="112.62,899.63,112.4548,889.7825,110.513,895.0956,105.1998,893.1538,112.62,899.63" style="stroke:#181818;stroke-width:1.0;"/><text fill="#000000" font-family="sans-serif" font-size="13" lengthAdjust="spacing" textLength="118.5679" x="100.53" y="858.0369">Analog Monitoring</text></g><!--link digital_output to oscilloscope--><g id="link_digital_output_oscilloscope"><path d="M407.73,775.4 C371.09,793.82 234.6908,862.3852 165.8408,896.9952 " fill="none" id="digital_output-to-oscilloscope" style="stroke:#181818;stroke-width:1.0;"/><polygon fill="#181818" points="160.48,899.69,170.3177,899.2217,164.9473,897.4443,166.7247,892.0739,160.48,899.69" style="stroke:#181818;stroke-width:1.0;"/><text fill="#000000" font-family="sans-serif" font-size="13" lengthAdjust="spacing" textLength="115.813" x="262.53" y="858.0369">Digital Monitoring</text></g><!--link digital_output to data_logger--><g id="link_digital_output_data_logger"><path d="M425.4,774.78 C449.32,785.13 516.92,815.04 570.53,844.97 C596.21,859.31 619.0028,873.7592 640.8228,888.2592 " fill="none" id="digital_output-to-data_logger" style="stroke:#181818;stroke-width:1.0;"/><polygon fill="#181818" points="645.82,891.58,640.538,883.2673,641.6556,888.8127,636.1103,889.9303,645.82,891.58" style="stroke:#181818;stroke-width:1.0;"/><text fill="#000000" font-family="sans-serif" font-size="13" lengthAdjust="spacing" textLength="86.9756" x="596.53" y="858.0369">Data Logging</text></g><!--link digital_output to logic_converter--><g id="link_digital_output_logic_converter"><path d="M416.1,778.92 C414.97,799.84 412.1839,851.2287 410.3239,885.6387 " fill="none" id="digital_output-to-logic_converter" style="stroke:#181818;stroke-width:1.0;"/><polygon fill="#181818" points="410,891.63,414.4799,882.859,410.2699,886.6373,406.4916,882.4272,410,891.63" style="stroke:#181818;stroke-width:1.0;"/><text fill="#000000" font-family="sans-serif" font-size="13" lengthAdjust="spacing" textLength="149.8999" x="412.53" y="858.0369">Logic Level Conversion</text></g><!--link logic_converter to microcontroller--><g id="link_logic_converter_microcontroller"><path d="M408.53,947.83 C408.53,970.24 408.53,995.94 408.53,1018.34 " fill="none" id="logic_converter-to-microcontroller" style="stroke:#181818;stroke-width:1.0;"/><polygon fill="#181818" points="408.53,1024.34,412.53,1015.34,408.53,1019.34,404.53,1015.34,408.53,1024.34" style="stroke:#181818;stroke-width:1.0;"/><text fill="#000000" font-family="sans-serif" font-size="13" lengthAdjust="spacing" textLength="119.9263" x="409.53" y="990.6369">3.3V Digital Signal</text></g><!--SRC=[ZLDDRnCn5BpxLppjXI8rHJHjGJqWfOqGI0sDcX8kI97ZVTaQ77jbUvC6n7_dsTvDDjj4aDF6dfdtuHbklLnmuI4RcpLQc5HbgJRVzSdRyoaCRrzdm1sKuMhcuXLZV4jvuBaqz2LN21E-B1L6k8kVZ9LS_EG5GZR1fHH6vvNmniAE9Vq6XkWn74TcNl-1tmpejwkqhp11xOob9llm33VZR_sBrAUBvntgs2XkvI_kfT4mDSfJIqIz86gOyOPxZrQYQqRTeMUhXEu8FbgkdLoMc7Cj40Oqh5n83FtSZmTNb- - -9Yc_Xvln1jUH-wnNI7zqyLBfgbQI3UIeo61uIwIxKV_oVI1m46PPSijfMqc2vmBO7yQafcc9Gwyoq5oP0kuhNrO-WUB9pCIJDdGe2-cvgh6rEoQo87oIpnEWeROyyedRVCqjmf1x3dUcAE9y4qHmrRnNMlE3dfnUtWahox3sMf7WCnNXBRLx9wHInWbJ8fmio0ivpgkYeDqacca1MZpgzqt_h3yD3KW1TxX21RScxlN_-b61E1CDfQKzai8Qkl3MA4KHkZ4qCaa-S5VEqTeDZEKfJ1v7_NFuKWc5vXJGYxEakzndC_OgzAMf1ohjO8v-ZQZZUngDsZkMuWMztAnrxqDjUhXESKms7wBWcuorSxl5RpDs7TT28OSO_Om2Uy3yq5Euy7jr0gkTgepLTps27NDz88uhvH3C0aHbBSq2woSQpMxRBiDIQK5rZvXdxAXSg7KW5w5CawCScXdAMFWa-HjSRLnsY1zqGrX8vsDb_HCTySDwjB0038Hz-sytMwSc1UL8kVWgeMOxUt6Ar6n39b-az8MOvkI7dKUy0NmcJnAEDhUI0XtRbmi5sibewO-CbkG6wYfZdJ4EiPgP_a5hfJUockmVmtVI5JWla-gYrxhGGE-4AD1ZsZily1S0]--></g></svg>